<?xml version="1.0" standalone="no"?>
<!DOCTYPE svg PUBLIC "-//W3C//DTD SVG 20010904//EN"
 "http://www.w3.org/TR/2001/REC-SVG-20010904/DTD/svg10.dtd">
<svg version="1.0" xmlns="http://www.w3.org/2000/svg"
 width="300.000000pt" height="73.000000pt" viewBox="0 0 300.000000 73.000000"
 preserveAspectRatio="xMidYMid meet">
<metadata>
Created by potrace 1.10, written by Peter Selinger 2001-2011
</metadata>
<g transform="translate(0.000000,73.000000) scale(0.100000,-0.100000)"
fill="#000000" stroke="none">
<path d="M907 472 c-20 -22 -21 -51 -2 -75 10 -14 11 -25 3 -42 -6 -13 -8 -35
-4 -49 7 -29 -3 -27 175 -30 110 -1 114 -2 117 -23 3 -15 -1 -23 -11 -23 -9 0
-20 -11 -26 -24 -9 -18 -8 -29 5 -49 16 -23 20 -24 54 -15 20 5 44 16 52 24 9
7 25 11 38 7 16 -4 22 -1 22 11 0 20 8 20 54 1 20 -9 34 -20 31 -25 -3 -5 0
-8 7 -5 117 38 189 55 237 55 61 0 78 12 60 41 -5 8 -9 17 -9 20 0 3 58 5 128
5 96 -1 133 3 145 13 18 15 23 71 7 71 -5 0 -10 7 -10 16 0 19 -65 100 -88
109 -11 4 -24 -2 -38 -20 -35 -44 -144 -55 -144 -14 0 26 -30 39 -89 39 -40 0
-53 -4 -68 -23 -28 -36 -69 -45 -185 -40 -67 3 -113 1 -126 -6 -15 -8 -23 -8
-28 0 -4 8 -26 10 -63 6 -56 -6 -91 6 -91 31 0 34 -125 45 -153 14z m133 -17
c0 -10 -10 -15 -30 -15 -17 0 -42 -7 -55 -16 -27 -18 -45 -12 -45 16 0 23 13
28 78 29 40 1 52 -2 52 -14z m650 0 c0 -10 -10 -15 -30 -15 -17 0 -42 -7 -55
-16 -27 -18 -45 -12 -45 16 0 23 13 28 78 29 40 1 52 -2 52 -14z m212 -23 c-3
-29 -1 -32 23 -32 32 0 43 -25 21 -49 -9 -10 -16 -21 -16 -24 0 -14 29 -6 38
9 5 9 12 12 15 7 10 -15 -22 -53 -44 -53 -11 0 -24 11 -31 25 -10 21 -8 27 8
39 21 16 14 32 -11 23 -9 -4 -15 -19 -15 -42 0 -24 -5 -38 -17 -42 -9 -4 -19
-1 -21 5 -3 9 -9 9 -24 1 -30 -16 -67 -3 -74 26 -8 33 -1 50 30 70 47 31 91
-17 44 -49 -12 -8 -26 -12 -31 -9 -5 3 -2 10 7 15 20 11 21 28 2 28 -16 0 -31
-34 -21 -50 9 -14 51 -12 63 3 6 7 14 40 18 75 5 50 10 62 23 60 12 -2 15 -12
13 -36z m-906 -39 c-14 -82 -18 -92 -37 -98 -10 -4 -23 -3 -29 0 -17 10 -11
44 10 57 11 7 20 20 20 30 0 28 11 48 27 48 12 0 14 -8 9 -37z m649 -10 c-4
-27 -9 -56 -11 -65 -6 -22 -41 -33 -58 -19 -10 9 -21 9 -39 0 -15 -7 -34 -8
-44 -4 -10 5 -22 7 -28 5 -25 -6 -92 -8 -102 -2 -5 4 -12 14 -15 22 -5 13 -6
13 -10 0 -3 -8 -10 -30 -16 -48 -9 -29 -9 -32 6 -28 36 12 127 26 163 26 41 0
60 -16 38 -32 -10 -7 -9 -8 6 -3 11 4 55 10 98 13 61 4 77 2 77 -9 0 -11 -18
-14 -72 -14 -50 0 -95 -7 -141 -23 -54 -18 -72 -20 -83 -11 -24 20 -16 28 49
48 83 26 46 26 -56 1 -99 -25 -182 -57 -198 -76 -9 -11 -15 -11 -25 -3 -12 10
-20 39 -11 39 1 0 20 6 41 14 35 12 39 17 40 47 2 38 -12 53 -31 37 -24 -20
-43 -1 -43 43 0 53 -23 48 -30 -7 -3 -27 -10 -40 -23 -42 -16 -3 -17 2 -11 50
4 29 8 55 10 57 7 8 62 8 75 0 8 -5 12 -23 11 -49 -2 -27 1 -39 8 -35 5 3 10
17 10 30 0 23 22 54 41 56 5 1 23 2 40 3 29 1 31 0 25 -32 -6 -40 10 -33 19 9
10 44 31 30 27 -20 -3 -56 21 -55 34 1 5 23 15 44 23 46 11 4 13 -4 8 -42 -4
-26 -3 -46 3 -46 5 0 10 12 12 27 4 37 49 69 77 54 28 -15 27 -49 -1 -60 -27
-10 -36 -5 -20 11 16 16 15 28 -2 28 -16 0 -31 -34 -21 -50 3 -5 15 -10 25
-10 27 0 89 42 90 62 0 28 11 48 27 48 11 0 13 -10 8 -47z m-564 17 c26 -15
26 -71 -1 -95 -16 -15 -26 -17 -48 -9 -23 8 -27 15 -27 49 0 32 5 42 25 52 30
15 27 15 51 3z m666 -14 c-2 -6 -14 -10 -25 -9 -20 2 -20 2 -4 -26 14 -24 14
-32 3 -45 -32 -38 -65 -7 -55 52 5 35 10 41 33 44 34 5 53 -2 48 -16z"/>
<path d="M1266 364 c-11 -28 -6 -44 13 -44 13 0 20 9 23 30 4 23 1 30 -13 30
-9 0 -20 -7 -23 -16z"/>
<path d="M1037 373 c-9 -8 -9 -48 0 -56 11 -12 33 14 33 39 0 23 -19 32 -33
17z"/>
</g>
</svg>
